<?xml version="1.0" encoding="utf-8"?>
<!-- Generator: Adobe Illustrator 15.0.0, SVG Export Plug-In . SVG Version: 6.00 Build 0)  -->
<!DOCTYPE svg PUBLIC "-//W3C//DTD SVG 1.1//EN" "http://www.w3.org/Graphics/SVG/1.1/DTD/svg11.dtd">
<svg version="1.1" id="Слой_1" xmlns="http://www.w3.org/2000/svg" xmlns:xlink="http://www.w3.org/1999/xlink" x="0px" y="0px"
	 width="203px" height="203px" viewBox="0 0 203 203" enable-background="new 0 0 203 203" xml:space="preserve">
<g>
	<path fill="#D51317" d="M0,101.5C0,45.663,45.449,0.398,101.509,0.398C157.559,0.398,203,45.663,203,101.5
		s-45.441,101.103-101.491,101.103C45.449,202.602,0,157.336,0,101.5"/>
	<polygon fill="#FFFFFF" points="33.573,117.839 33.573,108.808 24.155,90.469 31.729,90.469 36.906,100.56 42.134,90.469 
		49.702,90.469 40.242,108.808 40.242,117.839 	"/>
	<path fill="#FFFFFF" d="M78.341,104.157c0,7.74-6.282,13.963-14.013,13.963c-7.735,0-13.975-6.223-13.975-13.963
		c0-7.703,6.24-13.959,13.975-13.959C72.059,90.197,78.341,96.454,78.341,104.157 M57.033,104.157c0,4.733,3.212,7.67,7.295,7.67
		c4.122,0,7.34-2.937,7.34-7.67c0-4.695-3.218-7.703-7.34-7.703C60.246,96.454,57.033,99.461,57.033,104.157"/>
	<polygon fill="#FFFFFF" points="83.653,117.839 83.653,90.469 90.329,90.469 90.329,111.547 101.791,111.547 101.791,117.839 	"/>
	<path fill="#FFFFFF" d="M116.933,108.964c-0.866-1.326-1.489-1.759-2.87-1.759h-1.501v10.634h-6.67V90.469h6.67v10.325h1.455
		c1.38,0,2.017-0.472,2.875-1.759l5.489-8.566h7.504l-6.716,10.521c-1.492,2.032-2.354,2.54-2.862,2.895
		c0.547,0.311,1.409,0.782,2.899,3.125l6.953,10.83h-7.537L116.933,108.964z"/>
	<path fill="#FFFFFF" d="M145.339,108.964c-0.864-1.326-1.495-1.759-2.87-1.759h-1.493v10.634h-6.671V90.469h6.671v10.325h1.453
		c1.376,0,2.005-0.472,2.865-1.759l5.495-8.566h7.502l-6.714,10.521c-1.493,2.032-2.352,2.54-2.871,2.895
		c0.553,0.311,1.407,0.782,2.911,3.125l6.946,10.83h-7.54L145.339,108.964z"/>
	<polygon fill="#FFFFFF" points="176.057,111.547 176.057,117.839 162.713,117.839 162.713,111.547 166.047,111.547 166.047,96.728 
		162.713,96.728 162.713,90.464 176.057,90.464 176.057,96.728 172.724,96.728 172.724,111.547 	"/>
	<polygon fill="#FFFFFF" points="42.146,145.666 33.272,124.117 39.115,124.117 43.662,136.09 48.174,124.117 54.013,124.117 
		45.263,145.666 	"/>
	<polygon fill="#FFFFFF" points="67.911,140.709 67.911,145.666 57.399,145.666 57.399,140.709 60.029,140.709 60.029,129.039 
		57.399,129.039 57.399,124.117 67.911,124.117 67.911,129.039 65.287,129.039 65.287,140.709 	"/>
	<polygon fill="#FFFFFF" points="73.406,145.666 73.406,124.117 78.663,124.117 78.663,140.709 87.683,140.709 87.683,145.666 	"/>
	<polygon fill="#FFFFFF" points="91.057,145.666 91.057,124.117 96.307,124.117 96.307,140.709 105.339,140.709 105.339,145.666 	
		"/>
	<path fill="#FFFFFF" d="M113.672,145.666h-5.846l8.848-21.549h3.148l8.722,21.549h-5.844l-1.111-2.982h-6.81L113.672,145.666z
		 M116.605,137.724h3.163l-1.574-4.189L116.605,137.724z"/>
	<path fill="#FFFFFF" d="M148.831,127.5l-3.404,3.139c-1.297-1.17-2.937-1.782-4.763-1.782c-3.208,0-5.74,2.373-5.74,6.065
		c0,3.694,2.532,6.031,5.74,6.031c1.056,0,2.052-0.211,2.91-0.615v-2.952h-2.91v-3.937h8.167v8.889
		c-2.043,2.19-4.943,3.575-8.167,3.575c-6.079,0-10.994-4.931-10.994-10.991c0-6.065,4.915-10.993,10.994-10.993
		C143.887,123.929,146.788,125.317,148.831,127.5"/>
	<polygon fill="#FFFFFF" points="168.187,132.394 166.306,137.353 159.478,137.353 159.478,140.709 170.325,140.709 
		168.444,145.668 154.223,145.668 154.223,124.117 170.909,124.117 169.023,129.039 159.478,129.039 159.478,132.394 	"/>
	<path fill="#FFFFFF" d="M53.232,162.092c-0.437-0.66-0.671-0.908-1.374-0.908h-0.413v2.825h-1.84v-2.825H49.17
		c-0.696,0-0.943,0.248-1.375,0.908l-1.247,1.917h-2.037l1.738-2.639c0.334-0.5,0.729-0.962,1.102-1.077
		c-0.317-0.132-0.726-0.579-1.031-1.055l-1.623-2.433h2.037l1.129,1.716c0.434,0.673,0.672,0.907,1.364,0.907h0.377v-2.623h1.84
		v2.623H51.8c0.696,0,0.944-0.234,1.372-0.907l1.112-1.716h2.045l-1.608,2.433c-0.314,0.476-0.708,0.923-1.037,1.055
		c0.37,0.115,0.761,0.577,1.098,1.077l1.734,2.639h-2.039L53.232,162.092z"/>
	<polygon fill="#FFFFFF" points="62.391,164.009 62.391,159.758 58.693,164.009 57.503,164.009 57.503,156.806 59.337,156.806 
		59.337,161.054 63.041,156.806 64.225,156.806 64.225,164.009 	"/>
	<polygon fill="#FFFFFF" points="67.169,164.009 65.212,164.009 68.553,156.806 69.745,156.806 73.082,164.009 71.145,164.009 
		69.15,159.499 	"/>
	<path fill="#FFFFFF" d="M80.609,160.406c0,2.045-1.658,3.688-3.726,3.688c-2.049,0-3.692-1.644-3.692-3.688
		c0-2.047,1.644-3.698,3.692-3.698C78.951,156.708,80.609,158.359,80.609,160.406 M75.021,160.406c0,1.181,0.897,1.916,1.862,1.916
		c0.956,0,1.873-0.735,1.873-1.916c0-1.178-0.917-1.929-1.873-1.929C75.918,158.477,75.021,159.228,75.021,160.406"/>
	<path fill="#FFFFFF" d="M86.796,164.009v-4.251l-3.702,4.251h-1.179v-7.203h1.822v4.248l3.712-4.248h1.189v7.203H86.796z
		 M83.022,153.996h1.27c0,0.519,0.44,0.921,1,0.921c0.562,0,1.009-0.402,1.009-0.921h1.253c0,1.269-1.001,2.187-2.262,2.187
		C84.034,156.182,83.022,155.264,83.022,153.996"/>
	<path fill="#FFFFFF" d="M98.308,162.092c-0.424-0.66-0.673-0.908-1.371-0.908h-0.503v2.825h-1.84v-7.203h1.84v2.623h0.444
		c0.685,0,0.936-0.234,1.359-0.907l1.135-1.716h2.032l-1.616,2.433c-0.308,0.476-0.71,0.923-1.029,1.055
		c0.364,0.115,0.774,0.577,1.1,1.077l1.738,2.639h-2.039L98.308,162.092z"/>
	<path fill="#FFFFFF" d="M109.358,160.406c0,2.045-1.67,3.688-3.717,3.688c-2.057,0-3.713-1.644-3.713-3.688
		c0-2.047,1.657-3.698,3.713-3.698C107.688,156.708,109.358,158.359,109.358,160.406 M103.768,160.406
		c0,1.181,0.896,1.916,1.873,1.916c0.95,0,1.858-0.735,1.858-1.916c0-1.178-0.908-1.929-1.858-1.929
		C104.664,158.477,103.768,159.228,103.768,160.406"/>
	<polygon fill="#FFFFFF" points="116.542,164.009 116.542,159.758 114.519,162.087 112.486,159.758 112.486,164.009 
		110.661,164.009 110.661,156.806 111.843,156.806 114.519,159.889 117.193,156.806 118.376,156.806 118.376,164.009 	"/>
	<polygon fill="#FFFFFF" points="125.122,164.009 125.122,158.583 121.971,158.583 121.971,164.009 120.134,164.009 
		120.134,156.806 126.953,156.806 126.953,164.009 	"/>
	<polygon fill="#FFFFFF" points="129.91,164.009 127.953,164.009 131.299,156.806 132.485,156.806 135.826,164.009 133.89,164.009 
		131.898,159.499 	"/>
	<path fill="#FFFFFF" d="M142.758,158.646c0.301,0.663,0.313,1.646,0.115,2.266h-5.052c0,0.979,0.819,1.515,1.799,1.515
		c0.752,0,1.536-0.172,2.192-0.509l0.962,1.056c-0.787,0.578-1.865,1.121-3.154,1.121c-2.194,0-3.691-1.586-3.691-3.686
		c0-2.048,1.383-3.701,3.65-3.701C141.129,156.708,142.217,157.438,142.758,158.646 M137.904,159.758h3.307
		c0-0.175-0.054-0.404-0.174-0.577c-0.247-0.458-0.766-0.804-1.457-0.804C138.589,158.377,137.93,159.069,137.904,159.758"/>
	<path fill="#FFFFFF" d="M148.253,162.092c-0.433-0.66-0.679-0.908-1.378-0.908h-0.498v2.825h-1.842v-7.203h1.842v2.623h0.454
		c0.672,0,0.913-0.234,1.358-0.907l1.121-1.716h2.037l-1.616,2.433c-0.31,0.476-0.702,0.923-1.025,1.053
		c0.353,0.117,0.763,0.579,1.094,1.079l1.743,2.639H149.5L148.253,162.092z"/>
	<path fill="#FFFFFF" d="M158.526,158.042l-1.097,1.187c-0.596-0.547-1.112-0.736-1.751-0.736c-0.969,0-1.867,0.736-1.867,1.914
		c0,1.181,0.898,1.916,1.867,1.916c0.639,0,1.155-0.191,1.751-0.735l1.097,1.182c-0.684,0.804-1.717,1.326-2.848,1.326
		c-2.057,0-3.702-1.644-3.702-3.688c0-2.047,1.646-3.682,3.702-3.682C156.809,156.724,157.842,157.239,158.526,158.042"/>
	<polygon fill="#FFFFFF" points="133.776,77.547 133.776,70.544 145.59,73.636 131.616,32.243 117.642,73.636 129.457,70.544 
		129.457,77.547 103.993,77.547 103.993,70.058 117.642,73.634 101.509,25.834 85.362,73.634 99.003,70.058 99.003,77.547 
		73.549,77.547 73.549,70.544 85.362,73.636 71.385,32.243 57.408,73.636 69.219,70.544 69.219,77.547 44.705,77.547 44.705,79.795 
		158.143,79.795 158.143,77.547 	"/>
</g>
</svg>
