<svg xmlns="http://www.w3.org/2000/svg" viewBox="0 0 57.563 57.563"><path d="M54.411 20.052a9.46 9.46 0 0 0-5.751-8.911c-.517-3.323-3.195-5.92-6.523-6.36a5.206 5.206 0 0 0-.188-.987C41.362 1.79 39.595.281 37.554.039a5.24 5.24 0 0 0-3.639.909A5.659 5.659 0 0 0 30.791 0a5.723 5.723 0 0 0-5.649 4.858c-.102.021-.2.05-.3.074a9.815 9.815 0 0 0-.301-.669C23.08 1.371 20.5-.31 18.109.076c-1.569.255-2.869 1.321-3.632 2.929-1.38-.635-2.788-.743-4.06-.295-1.357.478-2.411 1.499-3.048 2.954-.845 1.928-.846 4.407-.029 6.765-1.101.756-1.924 1.867-2.405 3.26-.809 2.339-.539 5.161.74 7.746.14.282.293.562.46.837-1.201.781-2.1 1.939-2.582 3.352-.766 2.242-.427 4.884.93 7.246a10.818 10.818 0 0 0 2.409 2.876c-.321 1.344-.078 2.821.704 4.158 1.101 1.878 3.081 3.144 5.167 3.347 3.286 6.171 7.363 8.821 13.637 11.481l.07.03c.882.553 1.888.802 2.883.802a6.34 6.34 0 0 0 1.724-.247c.009-.003.018-.002.027-.005l.011-.007a5.892 5.892 0 0 0 1.31-.549c1.898-1.108 2.667-3.001 2.006-4.939-1.896-5.563-1.742-9.741.459-12.415 3.809-4.627 12.646-3.49 12.733-3.475l1.028.14.103-1.032c.014-.136.309-3.358-1.571-5.547a5.363 5.363 0 0 0-.343-.363 9.048 9.048 0 0 0 1.573-.505c3.567-1.508 5.922-4.87 5.998-8.568zM14.275 43.824l-.28-.55-.617.004h-.026c-1.575 0-3.192-.956-4.029-2.386-.61-1.042-.735-2.179-.343-3.12l.304-.729-.638-.465a8.788 8.788 0 0 1-2.429-2.706c-1.069-1.863-1.351-3.906-.771-5.604.434-1.27 1.305-2.206 2.519-2.708l1.185-.489-.763-1.029a9.977 9.977 0 0 1-.919-1.495c-1.027-2.076-1.268-4.396-.642-6.205.414-1.2 1.172-2.092 2.19-2.578l.856-.41-.365-.877-.044-.095c-.879-2.076-.978-4.283-.262-5.915.285-.651.844-1.505 1.881-1.87.998-.352 2.191-.108 3.366.682l1.154.778.368-1.343c.414-1.506 1.31-2.477 2.46-2.663 1.499-.255 3.275 1.037 4.324 3.113.084.167.162.337.234.511-.023.013-.042.03-.065.043a6.981 6.981 0 0 0-1.141.848 7.028 7.028 0 0 0-1.066 1.202l-.067.099a7.159 7.159 0 0 0-.476.817c-.035.069-.071.138-.104.208a7.269 7.269 0 0 0-.32.845c-.038.123-.076.245-.107.371a6.798 6.798 0 0 0-.165.899 6.95 6.95 0 0 0-.055.833c0 .183.008.366.022.552a8.043 8.043 0 0 0-6.62 7.932c0 1.144.247 2.278.721 3.321a6.163 6.163 0 0 0-1.663 4.22 6.195 6.195 0 0 0 3.445 5.54c-.005.535.003 1.056.021 1.567.006.167.019.329.027.494.017.34.037.679.065 1.01.016.189.038.374.057.56a24.453 24.453 0 0 0 .649 3.648c.044.173.088.346.135.517.079.281.165.558.254.833.048.151.094.304.145.454.113.331.237.658.365.984.035.089.066.181.102.27.167.412.346.821.537 1.226.054.115.114.229.17.343.141.29.284.579.437.867.082.154.17.308.256.463.137.247.275.494.421.739.099.167.202.334.304.5a33.588 33.588 0 0 0 .78 1.215c.155.231.314.462.477.694.12.172.241.344.366.516.171.236.348.474.526.712.127.169.251.338.382.508.194.253.397.509.6.765.124.157.244.312.371.47l.033.042c-3.673-2.046-6.269-4.534-8.532-8.978zM43.2 27.126l-.266-.044-.968.224-.106 2.207.998.053c1.231.063 2.147.462 2.8 1.217.793.917 1.033 2.182 1.098 3.053-2.751-.179-9.745-.152-13.406 4.288-2.676 3.245-2.949 8.068-.813 14.336.473 1.389-.5 2.204-1.122 2.567-.044.026-.094.043-.139.067-1.956-4.812-3.177-9.093-3.835-12.891-.004-.024-.006-.047-.011-.07-.52-3.03-.689-5.753-.591-8.192 1.4-2.387 5.515-2.483 5.557-2.484a1 1 0 0 0-.014-2h-.012c-.163.002-3.014.064-5.276 1.482.276-1.98.735-3.734 1.304-5.292a.987.987 0 0 0 .232-.621 21.715 21.715 0 0 1 2.478-4.581c4.484-.933 7.867.47 7.942.501a1.003 1.003 0 0 0 1.316-.514 1.001 1.001 0 0 0-.514-1.318c-.139-.061-2.898-1.238-6.865-.949 1.937-2.021 3.639-2.937 3.892-3.066 1.453-.696 3.576.203 4.273.61a1 1 0 0 0 1.014-1.723c-.114-.068-2.362-1.368-4.665-1.107a5.613 5.613 0 0 1 .857-1.844.998.998 0 1 0-1.589-1.213c-.063.081-1.375 1.821-1.372 3.824-1.455.891-5.214 3.592-7.844 9.02-.142.292-.279.606-.415.921-2.728-1.865-2.279-5.183-2.254-5.344a1 1 0 0 0-1.976-.312c-.29 1.815.126 5.555 3.495 7.564-.744 2.188-1.308 4.8-1.482 7.883a.992.992 0 0 0-.016.287c-.104 2.161-.004 4.558.344 7.183-1.268-.698-1.848-1.719-1.885-1.788a1.001 1.001 0 0 0-1.768.937c.053.101 1.25 2.314 4.017 3.169.672 3.688 1.853 7.811 3.693 12.391-.632-.009-1.255-.166-1.787-.501l.001-.003a3.806 3.806 0 0 1-.286-.204c-.109-.089-.219-.176-.315-.283l-.016-.015-.42-.478c-6.262-7.207-9.396-12.479-9.147-21.295l.021-.729-.688-.242a4.191 4.191 0 0 1-2.791-3.941 4.17 4.17 0 0 1 1.53-3.234l.656-.538-.426-.735a6.069 6.069 0 0 1-.818-3.033 6.05 6.05 0 0 1 5.814-6.056l1.215-.051-.284-1.182a5.112 5.112 0 0 1-.147-1.195c0-.307.034-.606.087-.9.013-.075.034-.147.05-.22a5.08 5.08 0 0 1 .65-1.59l.016-.028a5.21 5.21 0 0 1 1.206-1.311c.065-.05.134-.094.201-.141a5.072 5.072 0 0 1 .827-.47 5.037 5.037 0 0 1 1.697-.446l.924-.07v-.93l-.002-.078A3.724 3.724 0 0 1 30.791 2c.904 0 1.784.344 2.477.969l.701.633.672-.664a3.233 3.233 0 0 1 2.678-.913c1.256.148 2.346 1.085 2.71 2.331.121.411.157.829.108 1.242l-.103 1.115h1.125a5.608 5.608 0 0 1 5.577 5.209l.046.657.621.218a7.467 7.467 0 0 1 5.008 7.214c-.06 2.91-1.935 5.565-4.776 6.765-1.43.603-2.881.717-4.435.35z"/></svg>