<svg xmlns="http://www.w3.org/2000/svg" viewBox="0 0 187.733 187.733"><path d="M139.947 0h-92.16C34.611 0 23.893 10.718 23.893 23.893a3.414 3.414 0 0 0 3.413 3.413h133.12a3.414 3.414 0 0 0 3.413-3.413C163.84 10.718 153.122 0 139.947 0zM31.063 20.48c1.586-7.781 8.482-13.653 16.724-13.653h92.16c8.241 0 15.138 5.873 16.724 13.653H31.063z"/><path d="M27.307 20.48a3.414 3.414 0 0 0-3.413 3.413v126.293a3.414 3.414 0 0 0 6.826 0V23.893a3.414 3.414 0 0 0-3.413-3.413z"/><path d="M27.307 146.773c-7.528 0-13.653 6.125-13.653 13.653v23.893a3.414 3.414 0 0 0 3.413 3.413h20.48a3.414 3.414 0 0 0 3.413-3.413v-23.893c0-7.527-6.125-13.653-13.653-13.653zm6.826 34.134H20.48v-20.48c0-3.765 3.062-6.827 6.827-6.827s6.827 3.062 6.827 6.827v20.48zM160.427 20.48a3.414 3.414 0 0 0-3.413 3.413v126.293a3.414 3.414 0 0 0 6.826 0V23.893a3.414 3.414 0 0 0-3.413-3.413z"/><path d="M160.427 146.773c-7.528 0-13.653 6.125-13.653 13.653v23.893a3.414 3.414 0 0 0 3.413 3.413h20.48a3.414 3.414 0 0 0 3.413-3.413v-23.893c0-7.527-6.125-13.653-13.653-13.653zm6.826 34.134H153.6v-20.48c0-3.765 3.062-6.827 6.827-6.827s6.827 3.062 6.827 6.827v20.48z"/><path d="M184.32 180.907H3.413a3.414 3.414 0 0 0 0 6.826H184.32a3.414 3.414 0 0 0 0-6.826zM68.267 20.48a3.414 3.414 0 0 0-3.413 3.413V81.92a3.414 3.414 0 0 0 6.826 0V23.893a3.414 3.414 0 0 0-3.413-3.413z"/><path d="M68.267 78.507c-9.411 0-17.067 7.656-17.067 17.067s7.656 17.067 17.067 17.067 17.067-7.656 17.067-17.067-7.657-17.067-17.067-17.067zm0 27.306c-5.647 0-10.24-4.593-10.24-10.24s4.593-10.24 10.24-10.24 10.24 4.593 10.24 10.24c0 5.648-4.593 10.24-10.24 10.24zm51.2-85.333a3.414 3.414 0 0 0-3.413 3.413V81.92a3.414 3.414 0 0 0 6.826 0V23.893a3.414 3.414 0 0 0-3.413-3.413z"/><path d="M119.467 78.507c-9.411 0-17.067 7.656-17.067 17.067s7.656 17.067 17.067 17.067c9.411 0 17.067-7.656 17.067-17.067s-7.657-17.067-17.067-17.067zm0 27.306c-5.647 0-10.24-4.593-10.24-10.24s4.593-10.24 10.24-10.24 10.24 4.593 10.24 10.24c0 5.648-4.593 10.24-10.24 10.24z"/></svg>