<svg xmlns="http://www.w3.org/2000/svg" viewBox="0 0 414.834 414.834"><path d="M249.2 297.617c-11.6 0-22.4 4.8-30 12.4-7.6 7.6-12.4 18.4-12.4 30 0 11.6 4.8 22.4 12.4 30 7.6 7.6 18.4 12.4 30 12.4 11.6 0 22.4-4.8 30-12.4 7.6-7.6 12.4-18.4 12.4-30 0-11.6-4.8-22.4-12.4-30-8-7.6-18.4-12.4-30-12.4zm17.2 59.6c-4.4 4.4-10.4 7.2-17.2 7.2-6.8 0-12.8-2.8-17.2-7.2-4.4-4.4-7.2-10.4-7.2-17.2s2.8-12.8 7.2-17.2 10.4-7.2 17.2-7.2 12.8 2.8 17.2 7.2c4.4 4.4 7.2 10.4 7.2 17.2 0 6.8-2.8 12.8-7.2 17.2z"/><path d="M406.8 99.617s-29.6-4.4-57.2 20c-21.6 18.8-26.8 45.6-28 56.8h-146v-135.2c0-4.8-4-8.8-8.8-8.8h-.8c-45.6.8-87.2 18.4-116.8 45.6-30.4 27.6-49.2 65.6-49.2 107.6 0 22 5.2 42.8 14.4 61.6 9.6 19.6 23.2 36.8 40.4 51.2 3.6 2.8 8.4 2.8 11.6-.4 4.8-4.4 10-7.6 16.4-10 5.6-2.4 12-3.6 18.8-3.6 13.2 0 25.6 5.2 34.8 13.2 9.2 8.4 15.6 20 16.8 33.2.4 4.4 4 8 8.4 8h8.8c2.8 0 6 0 9.6-.4 3.2 0 6-.4 9.2-.8 4.4-.4 7.6-4 8-8 1.6-12.8 7.6-24.4 16.8-32.8 9.2-8 21.2-13.2 34.4-13.2 5.6 0 11.2.8 16 2.4 5.2 1.6 10 4.4 14.4 7.6 3.6 2.8 8.4 2.4 11.6-.8 15.6-14 28-30.8 36.4-49.6 10-22 12.4-38.8 12.8-62 0 0 .4-29.6 22.4-49.2 21.2-18.8 42.8-15.6 42.8-15.6 4.8.8 9.6-2.8 10-7.6.4-4-2.8-8.4-8-9.2zm-346-8.8c25.2-22.8 58.8-38 96.8-40.4v125.6l-121.6.4H18c2.4-33.2 18.4-63.2 42.8-85.6zm249.6 146c-6.8 14.4-16 27.6-27.6 39.2-4-2.4-8.8-4.4-13.2-6-6.8-2.4-14.4-3.6-22-3.6-17.6 0-34 6.8-46.4 17.6-10.8 9.6-18.4 22.4-21.6 36.8h-10.4c-3.2-14.4-10.8-27.2-21.2-36.8-12.4-11.2-28.8-18-46.8-18-8.8 0-17.2 1.6-25.2 4.8-5.6 2-10.8 5.2-15.6 8.4-12.4-11.6-22.8-25.2-30.4-40.4-6.8-14-10.8-28.8-12-44.8h303.2c-1.2 15.6-4.8 29.6-10.8 42.8z"/><path d="M101.2 297.617c-11.6 0-22.4 4.8-30 12.4-7.6 7.6-12.4 18.4-12.4 30 0 11.6 4.8 22.4 12.4 30 7.6 7.6 18.4 12.4 30 12.4 11.6 0 22.4-4.8 30-12.4 7.6-7.6 12.4-18.4 12.4-30 0-11.6-4.8-22.4-12.4-30-8-7.6-18.4-12.4-30-12.4zm17.2 59.6c-4.4 4.4-10.4 7.2-17.2 7.2s-12.8-2.8-17.2-7.2c-4.4-4.4-7.2-10.4-7.2-17.2s2.8-12.8 7.2-17.2c4.4-4.4 10.4-7.2 17.2-7.2s12.8 2.8 17.2 7.2c4.4 4.4 7.2 10.4 7.2 17.2 0 6.8-2.8 12.8-7.2 17.2z"/></svg>