<svg xmlns="http://www.w3.org/2000/svg" viewBox="0 0 512 512"><path d="M96 449c-5.52 0-10 4.48-10 10s4.48 10 10 10 10-4.48 10-10-4.48-10-10-10zm326 0H136c-5.523 0-10 4.477-10 10s4.477 10 10 10h286c5.523 0 10-4.477 10-10s-4.477-10-10-10z"/><path d="M502 492h-10v-67.703c11.478-4.05 20-15.054 20-28.297 0-16.542-13.458-30-30-30H353.293a185.626 185.626 0 0 0 15.595-8.866c27.737-17.604 50.186-42.11 65.242-71.134H436c16.577 0 30-13.425 30-30 0-16.542-13.458-30-30-30H331.976c14.003-10.652 24.71-24.655 31.296-40.885C376.025 181.952 386 170.356 386 156c0-16.542-13.458-30-30-30h-65.381A39.741 39.741 0 0 0 296 106c0-18.604-12.767-34.282-30-38.734V50c0-16.542 13.458-30 30-30 16.57 0 30 13.429 30 30v26c0 5.523 4.477 10 10 10s10-4.477 10-10V50c0-27.624-22.374-50-50-50-16.332 0-30.858 7.872-39.989 20.02C246.543 7.442 231.956 0 216 0c-27.57 0-50 22.43-50 50v26c0 5.523 4.477 10 10 10s10-4.477 10-10V50c0-16.542 13.458-30 30-30 16.57 0 30 13.429 30 30v17.266c-17.233 4.452-30 20.13-30 38.734a39.741 39.741 0 0 0 5.381 20H156c-16.577 0-30 13.425-30 30 0 14.034 9.688 25.844 22.727 29.104A97.51 97.51 0 0 0 179.977 226H76c-16.577 0-30 13.425-30 30 0 16.542 13.458 30 30 30h1.869c15.057 29.025 37.505 53.53 65.242 71.134A186.064 186.064 0 0 0 158.706 366H30c-16.577 0-30 13.425-30 30 0 13.036 8.361 24.152 20 28.28V492H10c-5.523 0-10 4.478-10 10s4.477 10 10 10h492c5.523 0 10-4.478 10-10s-4.477-10-10-10zM256 86c11.028 0 20 8.972 20 20s-8.972 20-20 20-20-8.972-20-20 8.972-20 20-20zm-100 80c-5.514 0-10-4.486-10-10 0-5.522 4.478-10 10-10h200c5.514 0 10 4.486 10 10 0 5.522-4.478 10-10 10H156zm15.263 20h169.482c-5.505 9.95-13.139 18.56-22.531 25.327C304.892 220.926 289.17 226 272.75 226h-33.5a77.645 77.645 0 0 1-67.987-40zM76 266c-5.514 0-10-4.486-10-10 0-5.522 4.478-10 10-10h360c5.514 0 10 4.486 10 10 0 5.522-4.478 10-10 10H76zm24.813 20h310.373c-29.672 49.063-83.64 80-141.677 80h-27.02c-58.035 0-112.003-30.937-141.676-80zM472 492H40v-66h432v66zm10-86H30c-5.514 0-10-4.486-10-10 0-5.522 4.478-10 10-10h452c5.514 0 10 4.486 10 10 0 5.522-4.478 10-10 10z"/></svg>