<?xml version="1.0" encoding="utf-8"?><svg xmlns="http://www.w3.org/2000/svg" xmlns:xlink="http://www.w3.org/1999/xlink"><symbol viewBox="0 0 57.563 57.563" id="001-salad" xmlns="http://www.w3.org/2000/svg"><path d="M54.411 20.052a9.46 9.46 0 0 0-5.751-8.911c-.517-3.323-3.195-5.92-6.523-6.36a5.206 5.206 0 0 0-.188-.987C41.362 1.79 39.595.281 37.554.039a5.24 5.24 0 0 0-3.639.909A5.659 5.659 0 0 0 30.791 0a5.723 5.723 0 0 0-5.649 4.858c-.102.021-.2.05-.3.074a9.815 9.815 0 0 0-.301-.669C23.08 1.371 20.5-.31 18.109.076c-1.569.255-2.869 1.321-3.632 2.929-1.38-.635-2.788-.743-4.06-.295-1.357.478-2.411 1.499-3.048 2.954-.845 1.928-.846 4.407-.029 6.765-1.101.756-1.924 1.867-2.405 3.26-.809 2.339-.539 5.161.74 7.746.14.282.293.562.46.837-1.201.781-2.1 1.939-2.582 3.352-.766 2.242-.427 4.884.93 7.246a10.818 10.818 0 0 0 2.409 2.876c-.321 1.344-.078 2.821.704 4.158 1.101 1.878 3.081 3.144 5.167 3.347 3.286 6.171 7.363 8.821 13.637 11.481l.07.03c.882.553 1.888.802 2.883.802a6.34 6.34 0 0 0 1.724-.247c.009-.003.018-.002.027-.005l.011-.007a5.892 5.892 0 0 0 1.31-.549c1.898-1.108 2.667-3.001 2.006-4.939-1.896-5.563-1.742-9.741.459-12.415 3.809-4.627 12.646-3.49 12.733-3.475l1.028.14.103-1.032c.014-.136.309-3.358-1.571-5.547a5.363 5.363 0 0 0-.343-.363 9.048 9.048 0 0 0 1.573-.505c3.567-1.508 5.922-4.87 5.998-8.568zM14.275 43.824l-.28-.55-.617.004h-.026c-1.575 0-3.192-.956-4.029-2.386-.61-1.042-.735-2.179-.343-3.12l.304-.729-.638-.465a8.788 8.788 0 0 1-2.429-2.706c-1.069-1.863-1.351-3.906-.771-5.604.434-1.27 1.305-2.206 2.519-2.708l1.185-.489-.763-1.029a9.977 9.977 0 0 1-.919-1.495c-1.027-2.076-1.268-4.396-.642-6.205.414-1.2 1.172-2.092 2.19-2.578l.856-.41-.365-.877-.044-.095c-.879-2.076-.978-4.283-.262-5.915.285-.651.844-1.505 1.881-1.87.998-.352 2.191-.108 3.366.682l1.154.778.368-1.343c.414-1.506 1.31-2.477 2.46-2.663 1.499-.255 3.275 1.037 4.324 3.113.084.167.162.337.234.511-.023.013-.042.03-.065.043a6.981 6.981 0 0 0-1.141.848 7.028 7.028 0 0 0-1.066 1.202l-.067.099a7.159 7.159 0 0 0-.476.817c-.035.069-.071.138-.104.208a7.269 7.269 0 0 0-.32.845c-.038.123-.076.245-.107.371a6.798 6.798 0 0 0-.165.899 6.95 6.95 0 0 0-.055.833c0 .183.008.366.022.552a8.043 8.043 0 0 0-6.62 7.932c0 1.144.247 2.278.721 3.321a6.163 6.163 0 0 0-1.663 4.22 6.195 6.195 0 0 0 3.445 5.54c-.005.535.003 1.056.021 1.567.006.167.019.329.027.494.017.34.037.679.065 1.01.016.189.038.374.057.56a24.453 24.453 0 0 0 .649 3.648c.044.173.088.346.135.517.079.281.165.558.254.833.048.151.094.304.145.454.113.331.237.658.365.984.035.089.066.181.102.27.167.412.346.821.537 1.226.054.115.114.229.17.343.141.29.284.579.437.867.082.154.17.308.256.463.137.247.275.494.421.739.099.167.202.334.304.5a33.588 33.588 0 0 0 .78 1.215c.155.231.314.462.477.694.12.172.241.344.366.516.171.236.348.474.526.712.127.169.251.338.382.508.194.253.397.509.6.765.124.157.244.312.371.47l.033.042c-3.673-2.046-6.269-4.534-8.532-8.978zM43.2 27.126l-.266-.044-.968.224-.106 2.207.998.053c1.231.063 2.147.462 2.8 1.217.793.917 1.033 2.182 1.098 3.053-2.751-.179-9.745-.152-13.406 4.288-2.676 3.245-2.949 8.068-.813 14.336.473 1.389-.5 2.204-1.122 2.567-.044.026-.094.043-.139.067-1.956-4.812-3.177-9.093-3.835-12.891-.004-.024-.006-.047-.011-.07-.52-3.03-.689-5.753-.591-8.192 1.4-2.387 5.515-2.483 5.557-2.484a1 1 0 0 0-.014-2h-.012c-.163.002-3.014.064-5.276 1.482.276-1.98.735-3.734 1.304-5.292a.987.987 0 0 0 .232-.621 21.715 21.715 0 0 1 2.478-4.581c4.484-.933 7.867.47 7.942.501a1.003 1.003 0 0 0 1.316-.514 1.001 1.001 0 0 0-.514-1.318c-.139-.061-2.898-1.238-6.865-.949 1.937-2.021 3.639-2.937 3.892-3.066 1.453-.696 3.576.203 4.273.61a1 1 0 0 0 1.014-1.723c-.114-.068-2.362-1.368-4.665-1.107a5.613 5.613 0 0 1 .857-1.844.998.998 0 1 0-1.589-1.213c-.063.081-1.375 1.821-1.372 3.824-1.455.891-5.214 3.592-7.844 9.02-.142.292-.279.606-.415.921-2.728-1.865-2.279-5.183-2.254-5.344a1 1 0 0 0-1.976-.312c-.29 1.815.126 5.555 3.495 7.564-.744 2.188-1.308 4.8-1.482 7.883a.992.992 0 0 0-.016.287c-.104 2.161-.004 4.558.344 7.183-1.268-.698-1.848-1.719-1.885-1.788a1.001 1.001 0 0 0-1.768.937c.053.101 1.25 2.314 4.017 3.169.672 3.688 1.853 7.811 3.693 12.391-.632-.009-1.255-.166-1.787-.501l.001-.003a3.806 3.806 0 0 1-.286-.204c-.109-.089-.219-.176-.315-.283l-.016-.015-.42-.478c-6.262-7.207-9.396-12.479-9.147-21.295l.021-.729-.688-.242a4.191 4.191 0 0 1-2.791-3.941 4.17 4.17 0 0 1 1.53-3.234l.656-.538-.426-.735a6.069 6.069 0 0 1-.818-3.033 6.05 6.05 0 0 1 5.814-6.056l1.215-.051-.284-1.182a5.112 5.112 0 0 1-.147-1.195c0-.307.034-.606.087-.9.013-.075.034-.147.05-.22a5.08 5.08 0 0 1 .65-1.59l.016-.028a5.21 5.21 0 0 1 1.206-1.311c.065-.05.134-.094.201-.141a5.072 5.072 0 0 1 .827-.47 5.037 5.037 0 0 1 1.697-.446l.924-.07v-.93l-.002-.078A3.724 3.724 0 0 1 30.791 2c.904 0 1.784.344 2.477.969l.701.633.672-.664a3.233 3.233 0 0 1 2.678-.913c1.256.148 2.346 1.085 2.71 2.331.121.411.157.829.108 1.242l-.103 1.115h1.125a5.608 5.608 0 0 1 5.577 5.209l.046.657.621.218a7.467 7.467 0 0 1 5.008 7.214c-.06 2.91-1.935 5.565-4.776 6.765-1.43.603-2.881.717-4.435.35z"/></symbol><symbol viewBox="0 0 480 480" id="002-gym-1" xmlns="http://www.w3.org/2000/svg"><path d="M472 144h-24v-12c0-15.464-12.536-28-28-28-4.16.023-8.261.983-12 2.808V96c0-17.673-14.327-32-32-32-17.673 0-32 14.327-32 32v48h-32v-8c.058-13.197-10.593-23.943-23.79-24.002A23.89 23.89 0 0 0 272 118.24c-9.044-8.32-22.956-8.32-32 0-9.044-8.32-22.956-8.32-32 0-9.75-8.894-24.864-8.2-33.758 1.55A23.9 23.9 0 0 0 168 136v8h-32V96c0-17.673-14.327-32-32-32-17.673 0-32 14.327-32 32v10.808A27.706 27.706 0 0 0 60 104c-15.464 0-28 12.536-28 28v12H8a8 8 0 0 0-8 8v48a8 8 0 0 0 8 8h24v12c0 15.464 12.536 28 28 28a27.706 27.706 0 0 0 12-2.808V256c0 17.673 14.327 32 32 32 17.673 0 32-14.327 32-32v-48h16v26.744a39.745 39.745 0 0 0 11.72 28.28L184 283.312V416h16V280a8 8 0 0 0-2.344-5.656l-22.624-22.632A24.133 24.133 0 0 1 168 234.744V184h46.856a9.6 9.6 0 0 1 7.744 3.752c.056.08.12.16.176.248.343.546.612 1.135.8 1.752.151.493.253.999.304 1.512.056.502.056 1.01 0 1.512a6.507 6.507 0 0 1-.104.8 8.37 8.37 0 0 1-.92 2.4A7.903 7.903 0 0 1 216 200h-24a8 8 0 0 0-8 8v16a8 8 0 0 0 5.472 7.592l17.6 5.88C221.36 242.216 232 263.84 232 280h16c0-22.008-13.696-50.336-35.832-57.712L200 218.232V216h16a23.864 23.864 0 0 0 17.6-8H304v29.336a24.138 24.138 0 0 1-4.8 14.4L281.6 275.2a7.998 7.998 0 0 0-1.6 4.8v136h16V282.664l16-21.328a40.226 40.226 0 0 0 8-24V208h24v48c0 17.673 14.327 32 32 32 17.673 0 32-14.327 32-32v-10.808A27.706 27.706 0 0 0 420 248c15.464 0 28-12.536 28-28v-12h24a8 8 0 0 0 8-8v-48a8 8 0 0 0-8-8zM32 192H16v-32h16v32zm40 28c0 6.627-5.373 12-12 12s-12-5.373-12-12v-88c0-6.627 5.373-12 12-12s12 5.373 12 12v88zm48 36c0 8.837-7.163 16-16 16s-16-7.163-16-16V96c0-8.837 7.163-16 16-16s16 7.163 16 16v160zm40-88a8 8 0 0 0-8 8v16h-16v-32h32c.009 1.512.161 3.021.456 4.504.088.472.24.904.352 1.36.184.712.32 1.448.56 2.136H160zm40-8a8 8 0 0 1-16 0v-24a8 8 0 0 1 16 0v24zm32 0a8 8 0 0 1-16 0v-24a8 8 0 0 1 16 0v24zm48-24a8 8 0 0 1 16 0v24a8 8 0 0 1-16 0v-24zm-32 0a8 8 0 0 1 16 0v24a8 8 0 0 1-16 0v-24zm96 56H240v-.224a23.85 23.85 0 0 0-.496-4.736c-.048-.216-.152-.416-.2-.64-.144-.584-.352-1.128-.536-1.696a23.215 23.215 0 0 0-1.224-2.992c-.232-.48-.344-1.024-.608-1.488.091-.062.179-.129.264-.2.368-.24.688-.528 1.04-.8.6-.448 1.232-.864 1.792-1.368.464.416 1 .744 1.496 1.12.496.376.984.8 1.52 1.136.755.466 1.535.891 2.336 1.272.544.264 1.056.576 1.6.8.934.358 1.891.655 2.864.888.504.136.976.328 1.496.432 3.077.629 6.25.629 9.328 0 .52-.104.992-.296 1.496-.432.973-.233 1.93-.53 2.864-.888.568-.232 1.08-.544 1.6-.8a24.548 24.548 0 0 0 2.344-1.272c.528-.352 1.008-.752 1.512-1.136.504-.384 1.032-.704 1.496-1.12.464.416 1 .744 1.496 1.12.496.376.984.8 1.52 1.136.755.466 1.535.891 2.336 1.272.544.264 1.056.576 1.6.8.934.358 1.891.655 2.864.888.504.136.976.328 1.496.432 12.955 2.633 25.591-5.734 28.224-18.688.322-1.585.483-3.198.48-4.816h32v32zm48 64c0 8.837-7.163 16-16 16s-16-7.163-16-16V96c0-8.837 7.163-16 16-16s16 7.163 16 16v160zm40-36c0 6.627-5.373 12-12 12s-12-5.373-12-12v-88c0-6.627 5.373-12 12-12s12 5.373 12 12v88zm32-28h-16v-32h16v32z"/></symbol><symbol viewBox="0 0 187.733 187.733" id="003-gym" xmlns="http://www.w3.org/2000/svg"><path d="M139.947 0h-92.16C34.611 0 23.893 10.718 23.893 23.893a3.414 3.414 0 0 0 3.413 3.413h133.12a3.414 3.414 0 0 0 3.413-3.413C163.84 10.718 153.122 0 139.947 0zM31.063 20.48c1.586-7.781 8.482-13.653 16.724-13.653h92.16c8.241 0 15.138 5.873 16.724 13.653H31.063z"/><path d="M27.307 20.48a3.414 3.414 0 0 0-3.413 3.413v126.293a3.414 3.414 0 0 0 6.826 0V23.893a3.414 3.414 0 0 0-3.413-3.413z"/><path d="M27.307 146.773c-7.528 0-13.653 6.125-13.653 13.653v23.893a3.414 3.414 0 0 0 3.413 3.413h20.48a3.414 3.414 0 0 0 3.413-3.413v-23.893c0-7.527-6.125-13.653-13.653-13.653zm6.826 34.134H20.48v-20.48c0-3.765 3.062-6.827 6.827-6.827s6.827 3.062 6.827 6.827v20.48zM160.427 20.48a3.414 3.414 0 0 0-3.413 3.413v126.293a3.414 3.414 0 0 0 6.826 0V23.893a3.414 3.414 0 0 0-3.413-3.413z"/><path d="M160.427 146.773c-7.528 0-13.653 6.125-13.653 13.653v23.893a3.414 3.414 0 0 0 3.413 3.413h20.48a3.414 3.414 0 0 0 3.413-3.413v-23.893c0-7.527-6.125-13.653-13.653-13.653zm6.826 34.134H153.6v-20.48c0-3.765 3.062-6.827 6.827-6.827s6.827 3.062 6.827 6.827v20.48z"/><path d="M184.32 180.907H3.413a3.414 3.414 0 0 0 0 6.826H184.32a3.414 3.414 0 0 0 0-6.826zM68.267 20.48a3.414 3.414 0 0 0-3.413 3.413V81.92a3.414 3.414 0 0 0 6.826 0V23.893a3.414 3.414 0 0 0-3.413-3.413z"/><path d="M68.267 78.507c-9.411 0-17.067 7.656-17.067 17.067s7.656 17.067 17.067 17.067 17.067-7.656 17.067-17.067-7.657-17.067-17.067-17.067zm0 27.306c-5.647 0-10.24-4.593-10.24-10.24s4.593-10.24 10.24-10.24 10.24 4.593 10.24 10.24c0 5.648-4.593 10.24-10.24 10.24zm51.2-85.333a3.414 3.414 0 0 0-3.413 3.413V81.92a3.414 3.414 0 0 0 6.826 0V23.893a3.414 3.414 0 0 0-3.413-3.413z"/><path d="M119.467 78.507c-9.411 0-17.067 7.656-17.067 17.067s7.656 17.067 17.067 17.067c9.411 0 17.067-7.656 17.067-17.067s-7.657-17.067-17.067-17.067zm0 27.306c-5.647 0-10.24-4.593-10.24-10.24s4.593-10.24 10.24-10.24 10.24 4.593 10.24 10.24c0 5.648-4.593 10.24-10.24 10.24z"/></symbol><symbol viewBox="0 0 414.834 414.834" id="004-baby-buggy" xmlns="http://www.w3.org/2000/svg"><path d="M249.2 297.617c-11.6 0-22.4 4.8-30 12.4-7.6 7.6-12.4 18.4-12.4 30 0 11.6 4.8 22.4 12.4 30 7.6 7.6 18.4 12.4 30 12.4 11.6 0 22.4-4.8 30-12.4 7.6-7.6 12.4-18.4 12.4-30 0-11.6-4.8-22.4-12.4-30-8-7.6-18.4-12.4-30-12.4zm17.2 59.6c-4.4 4.4-10.4 7.2-17.2 7.2-6.8 0-12.8-2.8-17.2-7.2-4.4-4.4-7.2-10.4-7.2-17.2s2.8-12.8 7.2-17.2 10.4-7.2 17.2-7.2 12.8 2.8 17.2 7.2c4.4 4.4 7.2 10.4 7.2 17.2 0 6.8-2.8 12.8-7.2 17.2z"/><path d="M406.8 99.617s-29.6-4.4-57.2 20c-21.6 18.8-26.8 45.6-28 56.8h-146v-135.2c0-4.8-4-8.8-8.8-8.8h-.8c-45.6.8-87.2 18.4-116.8 45.6-30.4 27.6-49.2 65.6-49.2 107.6 0 22 5.2 42.8 14.4 61.6 9.6 19.6 23.2 36.8 40.4 51.2 3.6 2.8 8.4 2.8 11.6-.4 4.8-4.4 10-7.6 16.4-10 5.6-2.4 12-3.6 18.8-3.6 13.2 0 25.6 5.2 34.8 13.2 9.2 8.4 15.6 20 16.8 33.2.4 4.4 4 8 8.4 8h8.8c2.8 0 6 0 9.6-.4 3.2 0 6-.4 9.2-.8 4.4-.4 7.6-4 8-8 1.6-12.8 7.6-24.4 16.8-32.8 9.2-8 21.2-13.2 34.4-13.2 5.6 0 11.2.8 16 2.4 5.2 1.6 10 4.4 14.4 7.6 3.6 2.8 8.4 2.4 11.6-.8 15.6-14 28-30.8 36.4-49.6 10-22 12.4-38.8 12.8-62 0 0 .4-29.6 22.4-49.2 21.2-18.8 42.8-15.6 42.8-15.6 4.8.8 9.6-2.8 10-7.6.4-4-2.8-8.4-8-9.2zm-346-8.8c25.2-22.8 58.8-38 96.8-40.4v125.6l-121.6.4H18c2.4-33.2 18.4-63.2 42.8-85.6zm249.6 146c-6.8 14.4-16 27.6-27.6 39.2-4-2.4-8.8-4.4-13.2-6-6.8-2.4-14.4-3.6-22-3.6-17.6 0-34 6.8-46.4 17.6-10.8 9.6-18.4 22.4-21.6 36.8h-10.4c-3.2-14.4-10.8-27.2-21.2-36.8-12.4-11.2-28.8-18-46.8-18-8.8 0-17.2 1.6-25.2 4.8-5.6 2-10.8 5.2-15.6 8.4-12.4-11.6-22.8-25.2-30.4-40.4-6.8-14-10.8-28.8-12-44.8h303.2c-1.2 15.6-4.8 29.6-10.8 42.8z"/><path d="M101.2 297.617c-11.6 0-22.4 4.8-30 12.4-7.6 7.6-12.4 18.4-12.4 30 0 11.6 4.8 22.4 12.4 30 7.6 7.6 18.4 12.4 30 12.4 11.6 0 22.4-4.8 30-12.4 7.6-7.6 12.4-18.4 12.4-30 0-11.6-4.8-22.4-12.4-30-8-7.6-18.4-12.4-30-12.4zm17.2 59.6c-4.4 4.4-10.4 7.2-17.2 7.2s-12.8-2.8-17.2-7.2c-4.4-4.4-7.2-10.4-7.2-17.2s2.8-12.8 7.2-17.2c4.4-4.4 10.4-7.2 17.2-7.2s12.8 2.8 17.2 7.2c4.4 4.4 7.2 10.4 7.2 17.2 0 6.8-2.8 12.8-7.2 17.2z"/></symbol><symbol viewBox="0 0 512 512" id="005-fountain" xmlns="http://www.w3.org/2000/svg"><path d="M96 449c-5.52 0-10 4.48-10 10s4.48 10 10 10 10-4.48 10-10-4.48-10-10-10zm326 0H136c-5.523 0-10 4.477-10 10s4.477 10 10 10h286c5.523 0 10-4.477 10-10s-4.477-10-10-10z"/><path d="M502 492h-10v-67.703c11.478-4.05 20-15.054 20-28.297 0-16.542-13.458-30-30-30H353.293a185.626 185.626 0 0 0 15.595-8.866c27.737-17.604 50.186-42.11 65.242-71.134H436c16.577 0 30-13.425 30-30 0-16.542-13.458-30-30-30H331.976c14.003-10.652 24.71-24.655 31.296-40.885C376.025 181.952 386 170.356 386 156c0-16.542-13.458-30-30-30h-65.381A39.741 39.741 0 0 0 296 106c0-18.604-12.767-34.282-30-38.734V50c0-16.542 13.458-30 30-30 16.57 0 30 13.429 30 30v26c0 5.523 4.477 10 10 10s10-4.477 10-10V50c0-27.624-22.374-50-50-50-16.332 0-30.858 7.872-39.989 20.02C246.543 7.442 231.956 0 216 0c-27.57 0-50 22.43-50 50v26c0 5.523 4.477 10 10 10s10-4.477 10-10V50c0-16.542 13.458-30 30-30 16.57 0 30 13.429 30 30v17.266c-17.233 4.452-30 20.13-30 38.734a39.741 39.741 0 0 0 5.381 20H156c-16.577 0-30 13.425-30 30 0 14.034 9.688 25.844 22.727 29.104A97.51 97.51 0 0 0 179.977 226H76c-16.577 0-30 13.425-30 30 0 16.542 13.458 30 30 30h1.869c15.057 29.025 37.505 53.53 65.242 71.134A186.064 186.064 0 0 0 158.706 366H30c-16.577 0-30 13.425-30 30 0 13.036 8.361 24.152 20 28.28V492H10c-5.523 0-10 4.478-10 10s4.477 10 10 10h492c5.523 0 10-4.478 10-10s-4.477-10-10-10zM256 86c11.028 0 20 8.972 20 20s-8.972 20-20 20-20-8.972-20-20 8.972-20 20-20zm-100 80c-5.514 0-10-4.486-10-10 0-5.522 4.478-10 10-10h200c5.514 0 10 4.486 10 10 0 5.522-4.478 10-10 10H156zm15.263 20h169.482c-5.505 9.95-13.139 18.56-22.531 25.327C304.892 220.926 289.17 226 272.75 226h-33.5a77.645 77.645 0 0 1-67.987-40zM76 266c-5.514 0-10-4.486-10-10 0-5.522 4.478-10 10-10h360c5.514 0 10 4.486 10 10 0 5.522-4.478 10-10 10H76zm24.813 20h310.373c-29.672 49.063-83.64 80-141.677 80h-27.02c-58.035 0-112.003-30.937-141.676-80zM472 492H40v-66h432v66zm10-86H30c-5.514 0-10-4.486-10-10 0-5.522 4.478-10 10-10h452c5.514 0 10 4.486 10 10 0 5.522-4.478 10-10 10z"/></symbol><symbol viewBox="0 0 412.053 412.053" id="006-family-room" xmlns="http://www.w3.org/2000/svg"><path d="M396.399 67.735c-2.731-14.978-9.574-28.905-19.791-40.284l-.059-.067c-5.233-5.909-13.905-14.033-25.497-19.181l-.264-.117C339.6 2.72 327.594 0 315.105 0c-18.47 0-35.94 5.962-50.522 17.243l-.098.076c-12.536 9.789-20.809 23.777-21.833 25.559a7.914 7.914 0 0 0-.134.236c-6.577 12.058-10.053 25.726-10.053 39.527 0 2.866.15 5.767.448 8.621a8 8 0 0 0 4.248 6.26 29.662 29.662 0 0 0 4.691 1.96c6.438 19.706 20.499 35.466 38.375 44.329-7.663 3.914-14.545 9.089-20.498 15.418a8 8 0 0 0 11.655 10.961 59.159 59.159 0 0 1 9.369-8.088c4.843 13.721 17.325 23.773 31.522 23.773h1.194c14.221 0 26.691-10.773 31.248-25.35 16.893 10.59 27.701 29.458 27.701 49.641v83.099l-72.764 47.215a7.998 7.998 0 0 0-2.356 11.065 7.993 7.993 0 0 0 11.065 2.356l76.409-49.58a8.001 8.001 0 0 0 3.646-6.711v-87.444c0-28.331-15.816-53.725-40.812-66.396 23.671-11.814 40.41-35.658 42.05-63.429a29.956 29.956 0 0 0 5.791-7.157 7.98 7.98 0 0 0 .952-5.449zM313.47 169.876h-1.194c-9.574 0-17.663-9.28-17.663-20.265 0-.137-.003-.273-.01-.409a76.004 76.004 0 0 0 19.344 2.494c5.686 0 11.235-.634 16.572-1.835-.626 10.816-8.324 20.015-17.049 20.015zm.476-34.18c-24.123 0-45.512-14.37-54.882-35.91 11.108-3.142 19.605-12.566 21.397-24.173 4.773.613 9.61.922 14.463.922 16.272 0 31.948-3.411 45.987-9.943 3.618 12.425 15.11 21.531 28.688 21.531.99 0 1.974-.05 2.949-.148-5.641 27.18-29.847 47.721-58.602 47.721zm55.653-63.572c-7.649 0-13.872-6.221-13.872-13.869v-4.452a8 8 0 0 0-12.254-6.775c-14.077 8.837-30.865 13.508-48.55 13.508a96.545 96.545 0 0 1-20.419-2.167 8 8 0 0 0-9.695 7.818v4.853c0 7.647-6.222 13.869-13.87 13.869-.524 0-1.042-.029-1.554-.086a7.251 7.251 0 0 0-.357-.045 13.432 13.432 0 0 1-.533-.084 67.064 67.064 0 0 1-.032-2.052c0-11.1 2.785-22.088 8.055-31.783l.06-.106c.068-.123 7.294-12.65 17.741-20.813l.053-.041C286.126 20.806 300.211 16 315.105 16c10.075 0 19.753 2.191 28.764 6.512.156.075.387.18.689.313 8.897 3.952 15.728 10.348 19.918 15.059l.141.161a66.47 66.47 0 0 1 15.374 29.354c-2.617 2.964-6.401 4.725-10.392 4.725zM245.81 276.808c18.128-10.667 30.322-30.386 30.322-52.897 0-10.13-2.47-19.696-6.837-28.125a8.105 8.105 0 0 0-.536-1.011c-10.386-19.154-30.676-32.191-53.954-32.191-23.283 0-43.577 13.041-53.96 32.204a8.098 8.098 0 0 0-.522.985 60.947 60.947 0 0 0-6.844 28.138c0 22.507 12.188 42.222 30.311 52.89-22.433 11.597-36.643 34.617-36.643 60.093v29.178a8 8 0 0 0 3.704 6.749l59.659 37.98a7.995 7.995 0 0 0 8.569.014l59.8-37.781a7.999 7.999 0 0 0 3.727-6.801l-.141-29.377c-.122-25.536-14.317-48.48-36.655-60.048zm-31.005-98.224c13.925 0 26.401 6.31 34.723 16.222-10.78 3.089-22.602 4.7-34.721 4.7-12.123 0-23.946-1.611-34.725-4.7 8.322-9.912 20.799-16.222 34.723-16.222zm-45.327 45.327c0-5.197.879-10.194 2.497-14.847 13.201 4.228 27.85 6.442 42.832 6.442 14.978 0 29.625-2.214 42.828-6.442a45.127 45.127 0 0 1 2.497 14.847c0 24.993-20.333 45.327-45.327 45.327-24.993 0-45.327-20.334-45.327-45.327zm59.527 59.668c-1 7.568-7.638 12.684-13.644 12.684h-.974c-6.361 0-13.425-5.38-14.34-12.82a61.273 61.273 0 0 0 14.757 1.795c4.886 0 9.642-.575 14.201-1.659zM214.822 394.58l-51.676-32.898v-24.787c0-17.591 8.888-33.653 23.275-43.119 4.999 11.407 16.783 18.487 27.966 18.487h.974c12.073 0 22.745-7.857 27.355-18.773 14.595 9.41 23.663 25.598 23.748 43.443l.12 24.944-51.762 32.703zm-57.463-214.738a8.001 8.001 0 0 0-2.572-11.018 74.519 74.519 0 0 0-7.554-4.109c9.886-5.054 18.631-12.293 25.573-21.348a27.773 27.773 0 0 0 9.12 1.532c15.373 0 27.88-12.507 27.88-27.88V97.138c0-25.272-9.654-49.207-27.183-67.394C165.144 11.61 141.678 1.076 116.548.082h-.007a98.032 98.032 0 0 0-6.216-.055c-25.018.604-48.617 10.73-66.45 28.512-18.283 18.23-28.352 42.593-28.352 68.6v19.881c0 15.373 12.507 27.88 27.881 27.88 3.192 0 6.26-.539 9.118-1.531 7.647 9.974 17.483 17.745 28.622 22.819-24.685 12.982-39.953 38.112-39.953 65.94v65.484a7.999 7.999 0 0 0 3.646 6.711l72.575 47.091a7.994 7.994 0 0 0 11.065-2.356 8 8 0 0 0-2.356-11.065l-68.93-44.726v-61.139c0-18.51 8.619-35.505 23.058-46.472 4.952 14.37 17.668 25.167 31.728 25.167h1.194c15.27 0 27.458-13.822 31.75-29.264.477.278.95.563 1.419.854a8 8 0 0 0 11.019-2.571zM63.19 68.063a57.34 57.34 0 0 0-7.906 29.076v19.881c0 3.79-1.784 7.171-4.557 9.348a7.92 7.92 0 0 0-.681.497 11.807 11.807 0 0 1-6.643 2.035c-6.551 0-11.88-5.329-11.88-11.88V97.138c0-44.413 34.784-80.043 79.185-81.117a82.12 82.12 0 0 1 5.213.048c43.673 1.731 77.884 37.34 77.884 81.069v19.881c0 6.551-5.33 11.88-11.881 11.88-2.459 0-4.747-.751-6.645-2.036a8.07 8.07 0 0 0-.678-.495 11.868 11.868 0 0 1-4.558-9.349V97.138c0-28.238-21.036-52.64-48.932-56.761a8.005 8.005 0 0 0-9.145 7.288 81.018 81.018 0 0 1-3.022 16.457H70.083a7.998 7.998 0 0 0-6.893 3.941zm49.981 126.76h-1.194c-9.044 0-17.921-10.979-17.921-22.166 0-.69-.089-1.369-.259-2.02a76.503 76.503 0 0 0 18.868 2.35c6.12 0 12.118-.722 17.895-2.109-.544 11.633-9.348 23.945-17.389 23.945zm-.506-37.836c-18.646 0-35.855-8.489-47.161-22.99a27.746 27.746 0 0 0 5.779-16.978V97.138a41.415 41.415 0 0 1 3.652-17.016h39.783a7.999 7.999 0 0 0 7.504-5.227 96.49 96.49 0 0 0 4.513-16.675c16.017 5.83 27.309 21.343 27.309 38.918v19.881a27.74 27.74 0 0 0 5.78 16.978c-11.305 14.502-28.513 22.99-47.159 22.99z"/></symbol><symbol viewBox="0 0 477.175 477.175" id="007-arrows-2" xmlns="http://www.w3.org/2000/svg"><path d="M145.188 238.575l215.5-215.5c5.3-5.3 5.3-13.8 0-19.1s-13.8-5.3-19.1 0l-225.1 225.1c-5.3 5.3-5.3 13.8 0 19.1l225.1 225c2.6 2.6 6.1 4 9.5 4s6.9-1.3 9.5-4c5.3-5.3 5.3-13.8 0-19.1l-215.4-215.5z"/></symbol><symbol viewBox="0 0 477.175 477.175" id="008-arrows-1" xmlns="http://www.w3.org/2000/svg"><path d="M360.731 229.075l-225.1-225.1c-5.3-5.3-13.8-5.3-19.1 0s-5.3 13.8 0 19.1l215.5 215.5-215.5 215.5c-5.3 5.3-5.3 13.8 0 19.1 2.6 2.6 6.1 4 9.5 4 3.4 0 6.9-1.3 9.5-4l225.1-225.1c5.3-5.2 5.3-13.8.1-19z"/></symbol><symbol viewBox="0 0 21.825 21.825" id="009-arrows" xmlns="http://www.w3.org/2000/svg"><path d="M16.791 13.254a1.112 1.112 0 0 1 1.587 0 1.14 1.14 0 0 1 0 1.587l-6.65 6.651a1.14 1.14 0 0 1-.809.333c-.317 0-.603-.127-.81-.333l-6.65-6.651c-.444-.444-.444-1.143 0-1.587s1.143-.444 1.587 0l4.746 4.762V1.111A1.116 1.116 0 0 1 10.918 0c.619 0 1.111.492 1.111 1.111v16.904l4.762-4.761z" fill="#1e201d"/></symbol><symbol viewBox="0 0 35 35" id="010-smartphone-call" xmlns="http://www.w3.org/2000/svg"><path d="M25.302 0H9.698a2.37 2.37 0 0 0-2.364 2.364v30.271A2.371 2.371 0 0 0 9.698 35h15.604a2.37 2.37 0 0 0 2.364-2.364V2.364A2.37 2.37 0 0 0 25.302 0zM15.004 1.704h4.992a.286.286 0 0 1 0 .573h-4.992a.286.286 0 1 1 0-.573zM17.5 33.818a1.182 1.182 0 1 1 0-2.364 1.182 1.182 0 0 1 0 2.364zm8.521-3.193H8.979V3.749h17.042v26.876z"/></symbol><symbol viewBox="0 0 256 256" id="011-up-chevron" xmlns="http://www.w3.org/2000/svg"><path d="M128 48.907l-128 128 30.187 30.186L128 109.28l97.813 97.813L256 176.907z"/></symbol><symbol viewBox="0 0 256 256" id="012-left-chevron" xmlns="http://www.w3.org/2000/svg"><path d="M207.093 30.187L176.907 0l-128 128 128 128 30.186-30.187L109.28 128z"/></symbol><symbol viewBox="0 0 256 256" id="013-right-chevron" xmlns="http://www.w3.org/2000/svg"><path d="M79.093 0L48.907 30.187 146.72 128l-97.813 97.813L79.093 256l128-128z"/></symbol><symbol viewBox="0 0 256 256" id="014-down-chevron" xmlns="http://www.w3.org/2000/svg"><path d="M225.813 48.907L128 146.72 30.187 48.907 0 79.093l128 128 128-128z"/></symbol><symbol viewBox="0 0 512 512" id="015-menu" xmlns="http://www.w3.org/2000/svg"><path d="M491.318 235.318H20.682C9.26 235.318 0 244.577 0 256s9.26 20.682 20.682 20.682h470.636c11.423 0 20.682-9.259 20.682-20.682 0-11.422-9.259-20.682-20.682-20.682zm0-156.879H20.682C9.26 78.439 0 87.699 0 99.121c0 11.422 9.26 20.682 20.682 20.682h470.636c11.423 0 20.682-9.26 20.682-20.682 0-11.422-9.259-20.682-20.682-20.682zm0 313.758H20.682C9.26 392.197 0 401.456 0 412.879s9.26 20.682 20.682 20.682h470.636c11.423 0 20.682-9.259 20.682-20.682s-9.259-20.682-20.682-20.682z"/></symbol></svg>