<?xml version="1.0" encoding="iso-8859-1"?>
<!-- Generator: Adobe Illustrator 19.0.0, SVG Export Plug-In . SVG Version: 6.00 Build 0)  -->
<svg version="1.1" id="Capa_1" xmlns="http://www.w3.org/2000/svg" xmlns:xlink="http://www.w3.org/1999/xlink" x="0px" y="0px"
	 viewBox="0 0 187.733 187.733" style="enable-background:new 0 0 187.733 187.733;" xml:space="preserve">
<g>
	<g>
		<path d="M139.947,0h-92.16C34.611,0,23.893,10.718,23.893,23.893c0,1.884,1.529,3.413,3.413,3.413h133.12
			c1.884,0,3.413-1.529,3.413-3.413C163.84,10.718,153.122,0,139.947,0z M31.063,20.48c1.586-7.781,8.482-13.653,16.724-13.653
			h92.16c8.241,0,15.138,5.873,16.724,13.653H31.063z"/>
	</g>
</g>
<g>
	<g>
		<path d="M27.307,20.48c-1.884,0-3.413,1.529-3.413,3.413v126.293c0,1.884,1.529,3.413,3.413,3.413s3.413-1.529,3.413-3.413V23.893
			C30.72,22.009,29.191,20.48,27.307,20.48z"/>
	</g>
</g>
<g>
	<g>
		<path d="M27.307,146.773c-7.528,0-13.653,6.125-13.653,13.653v23.893c0,1.884,1.529,3.413,3.413,3.413h20.48
			c1.884,0,3.413-1.529,3.413-3.413v-23.893C40.96,152.899,34.835,146.773,27.307,146.773z M34.133,180.907H20.48v-20.48
			c0-3.765,3.062-6.827,6.827-6.827s6.827,3.062,6.827,6.827V180.907z"/>
	</g>
</g>
<g>
	<g>
		<path d="M160.427,20.48c-1.884,0-3.413,1.529-3.413,3.413v126.293c0,1.884,1.529,3.413,3.413,3.413s3.413-1.529,3.413-3.413
			V23.893C163.84,22.009,162.311,20.48,160.427,20.48z"/>
	</g>
</g>
<g>
	<g>
		<path d="M160.427,146.773c-7.528,0-13.653,6.125-13.653,13.653v23.893c0,1.884,1.529,3.413,3.413,3.413h20.48
			c1.884,0,3.413-1.529,3.413-3.413v-23.893C174.08,152.899,167.955,146.773,160.427,146.773z M167.253,180.907H153.6v-20.48
			c0-3.765,3.062-6.827,6.827-6.827s6.827,3.062,6.827,6.827V180.907z"/>
	</g>
</g>
<g>
	<g>
		<path d="M184.32,180.907H3.413c-1.884,0-3.413,1.529-3.413,3.413c0,1.884,1.529,3.413,3.413,3.413H184.32
			c1.884,0,3.413-1.529,3.413-3.413C187.733,182.436,186.204,180.907,184.32,180.907z"/>
	</g>
</g>
<g>
	<g>
		<path d="M68.267,20.48c-1.884,0-3.413,1.529-3.413,3.413V81.92c0,1.884,1.529,3.413,3.413,3.413s3.413-1.529,3.413-3.413V23.893
			C71.68,22.009,70.151,20.48,68.267,20.48z"/>
	</g>
</g>
<g>
	<g>
		<path d="M68.267,78.507c-9.411,0-17.067,7.656-17.067,17.067s7.656,17.067,17.067,17.067s17.067-7.656,17.067-17.067
			S77.677,78.507,68.267,78.507z M68.267,105.813c-5.647,0-10.24-4.593-10.24-10.24c0-5.647,4.593-10.24,10.24-10.24
			c5.647,0,10.24,4.593,10.24,10.24C78.507,101.221,73.914,105.813,68.267,105.813z"/>
	</g>
</g>
<g>
	<g>
		<path d="M119.467,20.48c-1.884,0-3.413,1.529-3.413,3.413V81.92c0,1.884,1.529,3.413,3.413,3.413c1.884,0,3.413-1.529,3.413-3.413
			V23.893C122.88,22.009,121.351,20.48,119.467,20.48z"/>
	</g>
</g>
<g>
	<g>
		<path d="M119.467,78.507c-9.411,0-17.067,7.656-17.067,17.067s7.656,17.067,17.067,17.067c9.411,0,17.067-7.656,17.067-17.067
			S128.877,78.507,119.467,78.507z M119.467,105.813c-5.647,0-10.24-4.593-10.24-10.24c0-5.647,4.593-10.24,10.24-10.24
			c5.647,0,10.24,4.593,10.24,10.24C129.707,101.221,125.114,105.813,119.467,105.813z"/>
	</g>
</g>
<g>
</g>
<g>
</g>
<g>
</g>
<g>
</g>
<g>
</g>
<g>
</g>
<g>
</g>
<g>
</g>
<g>
</g>
<g>
</g>
<g>
</g>
<g>
</g>
<g>
</g>
<g>
</g>
<g>
</g>
</svg>
