<?xml version="1.0" encoding="iso-8859-1"?>
<!-- Generator: Adobe Illustrator 19.0.0, SVG Export Plug-In . SVG Version: 6.00 Build 0)  -->
<svg version="1.1" id="Capa_1" xmlns="http://www.w3.org/2000/svg" xmlns:xlink="http://www.w3.org/1999/xlink" x="0px" y="0px"
	 viewBox="0 0 414.834 414.834" style="enable-background:new 0 0 414.834 414.834;" xml:space="preserve">
<g>
	<g>
		<g>
			<path d="M249.2,297.617c-11.6,0-22.4,4.8-30,12.4c-7.6,7.6-12.4,18.4-12.4,30c0,11.6,4.8,22.4,12.4,30c7.6,7.6,18.4,12.4,30,12.4
				c11.6,0,22.4-4.8,30-12.4c7.6-7.6,12.4-18.4,12.4-30c0-11.6-4.8-22.4-12.4-30C271.2,302.417,260.8,297.617,249.2,297.617z
				 M266.4,357.217c-4.4,4.4-10.4,7.2-17.2,7.2c-6.8,0-12.8-2.8-17.2-7.2c-4.4-4.4-7.2-10.4-7.2-17.2s2.8-12.8,7.2-17.2
				s10.4-7.2,17.2-7.2s12.8,2.8,17.2,7.2c4.4,4.4,7.2,10.4,7.2,17.2C273.6,346.817,270.8,352.817,266.4,357.217z"/>
			<path d="M406.8,99.617c0,0-29.6-4.4-57.2,20c-21.6,18.8-26.8,45.6-28,56.8h-146v-135.2c0-4.8-4-8.8-8.8-8.8c-0.4,0-0.8,0-0.8,0
				c-45.6,0.8-87.2,18.4-116.8,45.6c-30.4,27.6-49.2,65.6-49.2,107.6c0,22,5.2,42.8,14.4,61.6c9.6,19.6,23.2,36.8,40.4,51.2
				c3.6,2.8,8.4,2.8,11.6-0.4c4.8-4.4,10-7.6,16.4-10c5.6-2.4,12-3.6,18.8-3.6c13.2,0,25.6,5.2,34.8,13.2c9.2,8.4,15.6,20,16.8,33.2
				c0.4,4.4,4,8,8.4,8c1.2,0,2.8,0,4.4,0c2.4,0,4,0,4.4,0c2.8,0,6,0,9.6-0.4c3.2,0,6-0.4,9.2-0.8c4.4-0.4,7.6-4,8-8
				c1.6-12.8,7.6-24.4,16.8-32.8c9.2-8,21.2-13.2,34.4-13.2c5.6,0,11.2,0.8,16,2.4c5.2,1.6,10,4.4,14.4,7.6
				c3.6,2.8,8.4,2.4,11.6-0.8c15.6-14,28-30.8,36.4-49.6c10-22,12.4-38.8,12.8-62c0,0,0.4-29.6,22.4-49.2
				c21.2-18.8,42.8-15.6,42.8-15.6c4.8,0.8,9.6-2.8,10-7.6C415.2,104.817,412,100.417,406.8,99.617z M60.8,90.817
				c25.2-22.8,58.8-38,96.8-40.4v125.6l-121.6,0.4H18C20.4,143.217,36.4,113.217,60.8,90.817z M310.4,236.817
				c-6.8,14.4-16,27.6-27.6,39.2c-4-2.4-8.8-4.4-13.2-6c-6.8-2.4-14.4-3.6-22-3.6c-17.6,0-34,6.8-46.4,17.6
				c-10.8,9.6-18.4,22.4-21.6,36.8H178c-2.4,0-5.2,0-8.4,0h-0.4c-3.2-14.4-10.8-27.2-21.2-36.8c-12.4-11.2-28.8-18-46.8-18
				c-8.8,0-17.2,1.6-25.2,4.8c-5.6,2-10.8,5.2-15.6,8.4c-12.4-11.6-22.8-25.2-30.4-40.4c-6.8-14-10.8-28.8-12-44.8h303.2
				C320,209.617,316.4,223.617,310.4,236.817z"/>
			<path d="M101.2,297.617c-11.6,0-22.4,4.8-30,12.4c-7.6,7.6-12.4,18.4-12.4,30c0,11.6,4.8,22.4,12.4,30c7.6,7.6,18.4,12.4,30,12.4
				c11.6,0,22.4-4.8,30-12.4c7.6-7.6,12.4-18.4,12.4-30c0-11.6-4.8-22.4-12.4-30C123.2,302.417,112.8,297.617,101.2,297.617z
				 M118.4,357.217c-4.4,4.4-10.4,7.2-17.2,7.2s-12.8-2.8-17.2-7.2c-4.4-4.4-7.2-10.4-7.2-17.2s2.8-12.8,7.2-17.2
				c4.4-4.4,10.4-7.2,17.2-7.2s12.8,2.8,17.2,7.2c4.4,4.4,7.2,10.4,7.2,17.2C125.6,346.817,122.8,352.817,118.4,357.217z"/>
		</g>
	</g>
</g>
<g>
</g>
<g>
</g>
<g>
</g>
<g>
</g>
<g>
</g>
<g>
</g>
<g>
</g>
<g>
</g>
<g>
</g>
<g>
</g>
<g>
</g>
<g>
</g>
<g>
</g>
<g>
</g>
<g>
</g>
</svg>
