<?xml version="1.0" encoding="iso-8859-1"?>
<!-- Generator: Adobe Illustrator 19.0.0, SVG Export Plug-In . SVG Version: 6.00 Build 0)  -->
<svg version="1.1" id="Capa_1" xmlns="http://www.w3.org/2000/svg" xmlns:xlink="http://www.w3.org/1999/xlink" x="0px" y="0px"
	 viewBox="0 0 512 512" style="enable-background:new 0 0 512 512;" xml:space="preserve">
<g>
	<g>
		<path d="M96,449c-5.52,0-10,4.48-10,10c0,5.52,4.48,10,10,10s10-4.48,10-10C106,453.48,101.52,449,96,449z"/>
	</g>
</g>
<g>
	<g>
		<path d="M422,449H136c-5.523,0-10,4.477-10,10s4.477,10,10,10h286c5.523,0,10-4.477,10-10S427.523,449,422,449z"/>
	</g>
</g>
<g>
	<g>
		<path d="M502,492h-10v-67.703c11.478-4.05,20-15.054,20-28.297c0-16.542-13.458-30-30-30H353.293
			c5.319-2.695,10.526-5.648,15.595-8.866c27.737-17.604,50.186-42.11,65.242-71.134H436c16.577,0,30-13.425,30-30
			c0-16.542-13.458-30-30-30H331.976c14.003-10.652,24.71-24.655,31.296-40.885C376.025,181.952,386,170.356,386,156
			c0-16.542-13.458-30-30-30h-65.381c3.415-5.888,5.381-12.717,5.381-20c0-18.604-12.767-34.282-30-38.734V50
			c0-16.542,13.458-30,30-30c16.57,0,30,13.429,30,30v26c0,5.523,4.477,10,10,10s10-4.477,10-10V50c0-27.624-22.374-50-50-50
			c-16.332,0-30.858,7.872-39.989,20.02C246.543,7.442,231.956,0,216,0c-27.57,0-50,22.43-50,50v26c0,5.523,4.477,10,10,10
			s10-4.477,10-10V50c0-16.542,13.458-30,30-30c16.57,0,30,13.429,30,30v17.266c-17.233,4.452-30,20.13-30,38.734
			c0,7.283,1.966,14.112,5.381,20H156c-16.577,0-30,13.425-30,30c0,14.034,9.688,25.844,22.727,29.104
			c6.711,16.518,17.621,30.507,31.25,40.896H76c-16.577,0-30,13.425-30,30c0,16.542,13.458,30,30,30h1.869
			c15.057,29.025,37.505,53.53,65.242,71.134c5.07,3.218,10.276,6.17,15.595,8.866H30c-16.577,0-30,13.425-30,30
			c0,13.036,8.361,24.152,20,28.28V492H10c-5.523,0-10,4.478-10,10c0,5.522,4.477,10,10,10c3.561,0,484.831,0,492,0
			c5.523,0,10-4.478,10-10C512,496.478,507.523,492,502,492z M256,86c11.028,0,20,8.972,20,20s-8.972,20-20,20s-20-8.972-20-20
			S244.972,86,256,86z M156,166c-5.514,0-10-4.486-10-10c0-5.522,4.478-10,10-10h200c5.514,0,10,4.486,10,10c0,5.522-4.478,10-10,10
			H156z M171.263,186h169.482c-5.505,9.95-13.139,18.56-22.531,25.327C304.892,220.926,289.17,226,272.75,226h-33.5
			C210.596,226,184.776,210.391,171.263,186z M76,266c-5.514,0-10-4.486-10-10c0-5.522,4.478-10,10-10c17.372,0,350.971,0,360,0
			c5.514,0,10,4.486,10,10c0,5.522-4.478,10-10,10H76z M100.813,286h310.373c-29.672,49.063-83.64,80-141.677,80h-27.02
			C184.454,366,130.486,335.063,100.813,286z M472,492H40v-66h432V492z M482,406H30c-5.514,0-10-4.486-10-10c0-5.522,4.478-10,10-10
			h452c5.514,0,10,4.486,10,10C492,401.522,487.522,406,482,406z"/>
	</g>
</g>
<g>
</g>
<g>
</g>
<g>
</g>
<g>
</g>
<g>
</g>
<g>
</g>
<g>
</g>
<g>
</g>
<g>
</g>
<g>
</g>
<g>
</g>
<g>
</g>
<g>
</g>
<g>
</g>
<g>
</g>
</svg>
