<svg xmlns="http://www.w3.org/2000/svg" width="203" height="203"><path fill="#D51317" d="M0 101.5C0 45.663 45.449.398 101.509.398 157.559.398 203 45.663 203 101.5s-45.441 101.103-101.491 101.103C45.449 202.602 0 157.336 0 101.5"/><path fill="#FFF" d="M33.573 117.839v-9.031l-9.418-18.339h7.574l5.177 10.091 5.228-10.091h7.568l-9.46 18.339v9.031zm44.768-13.682c0 7.74-6.282 13.963-14.013 13.963a13.94 13.94 0 0 1-13.975-13.963c0-7.703 6.24-13.959 13.975-13.959 7.731-.001 14.013 6.256 14.013 13.959m-21.308 0c0 4.733 3.212 7.67 7.295 7.67 4.122 0 7.34-2.937 7.34-7.67 0-4.695-3.218-7.703-7.34-7.703-4.082 0-7.295 3.007-7.295 7.703m26.62 13.682v-27.37h6.676v21.078h11.462v6.292zm33.28-8.875c-.866-1.326-1.489-1.759-2.87-1.759h-1.501v10.634h-6.67v-27.37h6.67v10.325h1.455c1.38 0 2.017-.472 2.875-1.759l5.489-8.566h7.504l-6.716 10.521c-1.492 2.032-2.354 2.54-2.862 2.895.547.311 1.409.782 2.899 3.125l6.953 10.83h-7.537l-5.689-8.876zm28.406 0c-.864-1.326-1.495-1.759-2.87-1.759h-1.493v10.634h-6.671v-27.37h6.671v10.325h1.453c1.376 0 2.005-.472 2.865-1.759l5.495-8.566h7.502l-6.714 10.521c-1.493 2.032-2.352 2.54-2.871 2.895.553.311 1.407.782 2.911 3.125l6.946 10.83h-7.54l-5.684-8.876zm30.718 2.583v6.292h-13.344v-6.292h3.334V96.728h-3.334v-6.264h13.344v6.264h-3.333v14.819zM42.146 145.666l-8.874-21.549h5.843l4.547 11.973 4.512-11.973h5.839l-8.75 21.549zm25.765-4.957v4.957H57.399v-4.957h2.63v-11.67h-2.63v-4.922h10.512v4.922h-2.624v11.67zm5.495 4.957v-21.549h5.257v16.592h9.02v4.957zm17.651 0v-21.549h5.25v16.592h9.032v4.957zm22.615 0h-5.846l8.848-21.549h3.148l8.722 21.549H122.7l-1.111-2.982h-6.81l-1.107 2.982zm2.933-7.942h3.163l-1.574-4.189-1.589 4.189zm32.226-10.224l-3.404 3.139c-1.297-1.17-2.937-1.782-4.763-1.782-3.208 0-5.74 2.373-5.74 6.065 0 3.694 2.532 6.031 5.74 6.031 1.056 0 2.052-.211 2.91-.615v-2.952h-2.91v-3.937h8.167v8.889c-2.043 2.19-4.943 3.575-8.167 3.575-6.079 0-10.994-4.931-10.994-10.991 0-6.065 4.915-10.993 10.994-10.993 3.223 0 6.124 1.388 8.167 3.571m19.356 4.894l-1.881 4.959h-6.828v3.356h10.847l-1.881 4.959h-14.221v-21.551h16.686l-1.886 4.922h-9.545v3.355zM53.232 162.092c-.437-.66-.671-.908-1.374-.908h-.413v2.825h-1.84v-2.825h-.435c-.696 0-.943.248-1.375.908l-1.247 1.917h-2.037l1.738-2.639c.334-.5.729-.962 1.102-1.077-.317-.132-.726-.579-1.031-1.055l-1.623-2.433h2.037l1.129 1.716c.434.673.672.907 1.364.907h.377v-2.623h1.84v2.623h.356c.696 0 .944-.234 1.372-.907l1.112-1.716h2.045l-1.608 2.433c-.314.476-.708.923-1.037 1.055.37.115.761.577 1.098 1.077l1.734 2.639h-2.039l-1.245-1.917zm9.159 1.917v-4.251l-3.698 4.251h-1.19v-7.203h1.834v4.248l3.704-4.248h1.184v7.203zm4.778 0h-1.957l3.341-7.203h1.192l3.337 7.203h-1.937l-1.995-4.51zm13.44-3.603c0 2.045-1.658 3.688-3.726 3.688a3.68 3.68 0 0 1-3.692-3.688 3.686 3.686 0 0 1 3.692-3.698 3.703 3.703 0 0 1 3.726 3.698m-5.588 0c0 1.181.897 1.916 1.862 1.916.956 0 1.873-.735 1.873-1.916 0-1.178-.917-1.929-1.873-1.929-.965 0-1.862.751-1.862 1.929m11.775 3.603v-4.251l-3.702 4.251h-1.179v-7.203h1.822v4.248l3.712-4.248h1.189v7.203h-1.842zm-3.774-10.013h1.27c0 .519.44.921 1 .921.562 0 1.009-.402 1.009-.921h1.253c0 1.269-1.001 2.187-2.262 2.187-1.258-.001-2.27-.919-2.27-2.187m15.286 8.096c-.424-.66-.673-.908-1.371-.908h-.503v2.825h-1.84v-7.203h1.84v2.623h.444c.685 0 .936-.234 1.359-.907l1.135-1.716h2.032l-1.616 2.433c-.308.476-.71.923-1.029 1.055.364.115.774.577 1.1 1.077l1.738 2.639h-2.039l-1.25-1.918zm11.05-1.686c0 2.045-1.67 3.688-3.717 3.688a3.692 3.692 0 1 1 0-7.386c2.047 0 3.717 1.651 3.717 3.698m-5.59 0c0 1.181.896 1.916 1.873 1.916.95 0 1.858-.735 1.858-1.916 0-1.178-.908-1.929-1.858-1.929-.977 0-1.873.751-1.873 1.929m12.774 3.603v-4.251l-2.023 2.329-2.033-2.329v4.251h-1.825v-7.203h1.182l2.676 3.083 2.674-3.083h1.183v7.203zm8.58 0v-5.426h-3.151v5.426h-1.837v-7.203h6.819v7.203zm4.788 0h-1.957l3.346-7.203h1.186l3.341 7.203h-1.936l-1.992-4.51zm12.848-5.363c.301.663.313 1.646.115 2.266h-5.052c0 .979.819 1.515 1.799 1.515.752 0 1.536-.172 2.192-.509l.962 1.056c-.787.578-1.865 1.121-3.154 1.121-2.194 0-3.691-1.586-3.691-3.686 0-2.048 1.383-3.701 3.65-3.701 1.55 0 2.638.73 3.179 1.938m-4.854 1.112h3.307c0-.175-.054-.404-.174-.577-.247-.458-.766-.804-1.457-.804-.991 0-1.65.692-1.676 1.381m10.349 2.334c-.433-.66-.679-.908-1.378-.908h-.498v2.825h-1.842v-7.203h1.842v2.623h.454c.672 0 .913-.234 1.358-.907l1.121-1.716h2.037l-1.616 2.433c-.31.476-.702.923-1.025 1.053.353.117.763.579 1.094 1.079l1.743 2.639H149.5l-1.247-1.918zm10.273-4.05l-1.097 1.187c-.596-.547-1.112-.736-1.751-.736-.969 0-1.867.736-1.867 1.914 0 1.181.898 1.916 1.867 1.916.639 0 1.155-.191 1.751-.735l1.097 1.182a3.757 3.757 0 0 1-2.848 1.326 3.683 3.683 0 0 1-3.702-3.688 3.676 3.676 0 0 1 3.702-3.682 3.744 3.744 0 0 1 2.848 1.316m-24.75-80.495v-7.003l11.814 3.092-13.974-41.393-13.974 41.393 11.815-3.092v7.003h-25.464v-7.489l13.649 3.576-16.133-47.8-16.147 47.8 13.641-3.576v7.489H73.549v-7.003l11.813 3.092-13.977-41.393-13.977 41.393 11.811-3.092v7.003H44.705v2.248h113.438v-2.248z"/></svg>